<svg xmlns="http://www.w3.org/2000/svg" viewBox="0 0 1100 820" width="1100" height="820" role="img" aria-label="Still water"><title>Still water</title><defs><linearGradient id="bgg43" x1="0" y1="0" x2="0.4" y2="1"><stop offset="0" stop-color="#0e3f4e"/><stop offset="1" stop-color="#2b6b62"/></linearGradient><radialGradient id="glg43" cx="0.68" cy="0.38" r="0.75"><stop offset="0" stop-color="#cfe3d8" stop-opacity="0.42"/><stop offset="1" stop-color="#cfe3d8" stop-opacity="0"/></radialGradient><filter id="grg43" x="0" y="0" width="100%" height="100%"><feTurbulence type="fractalNoise" baseFrequency="0.8" numOctaves="3" seed="43"/><feColorMatrix type="saturate" values="0"/></filter><clipPath id="cpg43"><rect width="1100" height="820"/></clipPath></defs><g clip-path="url(#cpg43)"><rect width="1100" height="820" fill="url(#bgg43)"/><rect width="1100" height="820" fill="url(#glg43)"/><path d="M0 229.6 Q 275 200.9 550 229.6 T 1100 229.6" fill="none" stroke="#e3c177" stroke-width="1" opacity="0.3"/><path d="M0 291.1 Q 275 264.45 550 291.1 T 1100 291.1" fill="none" stroke="#e3c177" stroke-width="1" opacity="0.27"/><path d="M0 352.6 Q 275 328 550 352.6 T 1100 352.6" fill="none" stroke="#e3c177" stroke-width="1" opacity="0.25"/><path d="M0 414.1 Q 275 391.55 550 414.1 T 1100 414.1" fill="none" stroke="#e3c177" stroke-width="1" opacity="0.22"/><path d="M0 475.6 Q 275 455.1 550 475.6 T 1100 475.6" fill="none" stroke="#e3c177" stroke-width="1" opacity="0.2"/><path d="M0 537.1 Q 275 518.65 550 537.1 T 1100 537.1" fill="none" stroke="#e3c177" stroke-width="1" opacity="0.18"/><path d="M0 598.6 Q 275 582.2 550 598.6 T 1100 598.6" fill="none" stroke="#e3c177" stroke-width="1" opacity="0.15"/><path d="M0 660.1 Q 275 645.75 550 660.1 T 1100 660.1" fill="none" stroke="#e3c177" stroke-width="1" opacity="0.12"/><path d="M0 721.6 Q 275 709.3 550 721.6 T 1100 721.6" fill="none" stroke="#e3c177" stroke-width="1" opacity="0.1"/><g transform="translate(550 196.8)" fill="#e3c177" opacity=".22"><path d="M0 -49.2 C28.7 -83.64 20.66 -127.92 0 -164 C-20.66 -127.92 -28.7 -83.64 0 -49.2 Z" transform="rotate(0)"/><path d="M0 -49.2 C28.7 -83.64 20.66 -127.92 0 -164 C-20.66 -127.92 -28.7 -83.64 0 -49.2 Z" transform="rotate(30)"/><path d="M0 -49.2 C28.7 -83.64 20.66 -127.92 0 -164 C-20.66 -127.92 -28.7 -83.64 0 -49.2 Z" transform="rotate(60)"/><path d="M0 -49.2 C28.7 -83.64 20.66 -127.92 0 -164 C-20.66 -127.92 -28.7 -83.64 0 -49.2 Z" transform="rotate(90)"/><path d="M0 -49.2 C28.7 -83.64 20.66 -127.92 0 -164 C-20.66 -127.92 -28.7 -83.64 0 -49.2 Z" transform="rotate(120)"/><path d="M0 -49.2 C28.7 -83.64 20.66 -127.92 0 -164 C-20.66 -127.92 -28.7 -83.64 0 -49.2 Z" transform="rotate(150)"/><path d="M0 -49.2 C28.7 -83.64 20.66 -127.92 0 -164 C-20.66 -127.92 -28.7 -83.64 0 -49.2 Z" transform="rotate(180)"/><path d="M0 -49.2 C28.7 -83.64 20.66 -127.92 0 -164 C-20.66 -127.92 -28.7 -83.64 0 -49.2 Z" transform="rotate(210)"/><path d="M0 -49.2 C28.7 -83.64 20.66 -127.92 0 -164 C-20.66 -127.92 -28.7 -83.64 0 -49.2 Z" transform="rotate(240)"/><path d="M0 -49.2 C28.7 -83.64 20.66 -127.92 0 -164 C-20.66 -127.92 -28.7 -83.64 0 -49.2 Z" transform="rotate(270)"/><path d="M0 -49.2 C28.7 -83.64 20.66 -127.92 0 -164 C-20.66 -127.92 -28.7 -83.64 0 -49.2 Z" transform="rotate(300)"/><path d="M0 -49.2 C28.7 -83.64 20.66 -127.92 0 -164 C-20.66 -127.92 -28.7 -83.64 0 -49.2 Z" transform="rotate(330)"/></g><circle cx="550" cy="196.8" r="45.1" fill="#cfe3d8" opacity=".8"/><circle cx="278.01" cy="146.64" r="1.15" fill="#cfe3d8" opacity="0.14"/><circle cx="46.34" cy="634.17" r="2.44" fill="#cfe3d8" opacity="0.09"/><circle cx="420.78" cy="42.71" r="1.24" fill="#cfe3d8" opacity="0.12"/><circle cx="680.75" cy="666.88" r="2.33" fill="#cfe3d8" opacity="0.2"/><circle cx="322.7" cy="791.54" r="1.07" fill="#cfe3d8" opacity="0.25"/><circle cx="265.75" cy="609.54" r="1.06" fill="#cfe3d8" opacity="0.15"/><circle cx="66.57" cy="215.92" r="2.18" fill="#cfe3d8" opacity="0.21"/><circle cx="304.45" cy="555.97" r="1.88" fill="#cfe3d8" opacity="0.23"/><circle cx="872.6" cy="370.41" r="0.76" fill="#cfe3d8" opacity="0.15"/><circle cx="486.45" cy="425.09" r="1.88" fill="#cfe3d8" opacity="0.27"/><circle cx="795.07" cy="278.29" r="1.98" fill="#cfe3d8" opacity="0.24"/><circle cx="56.44" cy="103.41" r="0.95" fill="#cfe3d8" opacity="0.15"/><circle cx="112.76" cy="609.67" r="1.46" fill="#cfe3d8" opacity="0.11"/><circle cx="76.48" cy="48.88" r="0.87" fill="#cfe3d8" opacity="0.14"/><circle cx="1013.15" cy="620.93" r="0.97" fill="#cfe3d8" opacity="0.13"/><circle cx="1082.05" cy="715.88" r="0.87" fill="#cfe3d8" opacity="0.11"/><circle cx="470.33" cy="475.4" r="1.72" fill="#cfe3d8" opacity="0.23"/><circle cx="531.89" cy="801.52" r="2.27" fill="#cfe3d8" opacity="0.09"/><circle cx="516.68" cy="745.26" r="2.43" fill="#cfe3d8" opacity="0.14"/><circle cx="1051.52" cy="53.21" r="1.09" fill="#cfe3d8" opacity="0.19"/><circle cx="708.3" cy="734.68" r="2.33" fill="#cfe3d8" opacity="0.18"/><circle cx="870.54" cy="77.39" r="2.46" fill="#cfe3d8" opacity="0.14"/><circle cx="284.2" cy="544.28" r="2.7" fill="#cfe3d8" opacity="0.25"/><circle cx="553.73" cy="689.62" r="1.93" fill="#cfe3d8" opacity="0.25"/><circle cx="119.24" cy="316.77" r="0.63" fill="#cfe3d8" opacity="0.16"/><circle cx="725.8" cy="5.86" r="1.13" fill="#cfe3d8" opacity="0.11"/><rect width="1100" height="820" filter="url(#grg43)" opacity="0.07"/></g></svg>
