<svg xmlns="http://www.w3.org/2000/svg" viewBox="0 0 1600 600" width="1600" height="600" role="img" aria-label="Carved lattice screen"><title>Carved lattice screen</title><defs><linearGradient id="bgg19" x1="0" y1="0" x2="0.4" y2="1"><stop offset="0" stop-color="#0a2e3a"/><stop offset="1" stop-color="#1d6d7e"/></linearGradient><radialGradient id="glg19" cx="0.68" cy="0.38" r="0.75"><stop offset="0" stop-color="#6aa8b3" stop-opacity="0.42"/><stop offset="1" stop-color="#6aa8b3" stop-opacity="0"/></radialGradient><filter id="grg19" x="0" y="0" width="100%" height="100%"><feTurbulence type="fractalNoise" baseFrequency="0.8" numOctaves="3" seed="19"/><feColorMatrix type="saturate" values="0"/></filter><clipPath id="cpg19"><rect width="1600" height="600"/></clipPath></defs><g clip-path="url(#cpg19)"><rect width="1600" height="600" fill="url(#bgg19)"/><rect width="1600" height="600" fill="url(#glg19)"/><g stroke="#e3c177" stroke-width="1" fill="none" opacity=".24"><circle cx="-66" cy="-66" r="33"/><circle cx="0" cy="-66" r="33"/><circle cx="66" cy="-66" r="33"/><circle cx="132" cy="-66" r="33"/><circle cx="198" cy="-66" r="33"/><circle cx="264" cy="-66" r="33"/><circle cx="330" cy="-66" r="33"/><circle cx="396" cy="-66" r="33"/><circle cx="462" cy="-66" r="33"/><circle cx="528" cy="-66" r="33"/><circle cx="594" cy="-66" r="33"/><circle cx="660" cy="-66" r="33"/><circle cx="726" cy="-66" r="33"/><circle cx="792" cy="-66" r="33"/><circle cx="858" cy="-66" r="33"/><circle cx="924" cy="-66" r="33"/><circle cx="990" cy="-66" r="33"/><circle cx="1056" cy="-66" r="33"/><circle cx="1122" cy="-66" r="33"/><circle cx="1188" cy="-66" r="33"/><circle cx="1254" cy="-66" r="33"/><circle cx="1320" cy="-66" r="33"/><circle cx="1386" cy="-66" r="33"/><circle cx="1452" cy="-66" r="33"/><circle cx="1518" cy="-66" r="33"/><circle cx="1584" cy="-66" r="33"/><circle cx="1650" cy="-66" r="33"/><circle cx="-66" cy="0" r="33"/><circle cx="0" cy="0" r="33"/><circle cx="66" cy="0" r="33"/><circle cx="132" cy="0" r="33"/><circle cx="198" cy="0" r="33"/><circle cx="264" cy="0" r="33"/><circle cx="330" cy="0" r="33"/><circle cx="396" cy="0" r="33"/><circle cx="462" cy="0" r="33"/><circle cx="528" cy="0" r="33"/><circle cx="594" cy="0" r="33"/><circle cx="660" cy="0" r="33"/><circle cx="726" cy="0" r="33"/><circle cx="792" cy="0" r="33"/><circle cx="858" cy="0" r="33"/><circle cx="924" cy="0" r="33"/><circle cx="990" cy="0" r="33"/><circle cx="1056" cy="0" r="33"/><circle cx="1122" cy="0" r="33"/><circle cx="1188" cy="0" r="33"/><circle cx="1254" cy="0" r="33"/><circle cx="1320" cy="0" r="33"/><circle cx="1386" cy="0" r="33"/><circle cx="1452" cy="0" r="33"/><circle cx="1518" cy="0" r="33"/><circle cx="1584" cy="0" r="33"/><circle cx="1650" cy="0" r="33"/><circle cx="-66" cy="66" r="33"/><circle cx="0" cy="66" r="33"/><circle cx="66" cy="66" r="33"/><circle cx="132" cy="66" r="33"/><circle cx="198" cy="66" r="33"/><circle cx="264" cy="66" r="33"/><circle cx="330" cy="66" r="33"/><circle cx="396" cy="66" r="33"/><circle cx="462" cy="66" r="33"/><circle cx="528" cy="66" r="33"/><circle cx="594" cy="66" r="33"/><circle cx="660" cy="66" r="33"/><circle cx="726" cy="66" r="33"/><circle cx="792" cy="66" r="33"/><circle cx="858" cy="66" r="33"/><circle cx="924" cy="66" r="33"/><circle cx="990" cy="66" r="33"/><circle cx="1056" cy="66" r="33"/><circle cx="1122" cy="66" r="33"/><circle cx="1188" cy="66" r="33"/><circle cx="1254" cy="66" r="33"/><circle cx="1320" cy="66" r="33"/><circle cx="1386" cy="66" r="33"/><circle cx="1452" cy="66" r="33"/><circle cx="1518" cy="66" r="33"/><circle cx="1584" cy="66" r="33"/><circle cx="1650" cy="66" r="33"/><circle cx="-66" cy="132" r="33"/><circle cx="0" cy="132" r="33"/><circle cx="66" cy="132" r="33"/><circle cx="132" cy="132" r="33"/><circle cx="198" cy="132" r="33"/><circle cx="264" cy="132" r="33"/><circle cx="330" cy="132" r="33"/><circle cx="396" cy="132" r="33"/><circle cx="462" cy="132" r="33"/><circle cx="528" cy="132" r="33"/><circle cx="594" cy="132" r="33"/><circle cx="660" cy="132" r="33"/><circle cx="726" cy="132" r="33"/><circle cx="792" cy="132" r="33"/><circle cx="858" cy="132" r="33"/><circle cx="924" cy="132" r="33"/><circle cx="990" cy="132" r="33"/><circle cx="1056" cy="132" r="33"/><circle cx="1122" cy="132" r="33"/><circle cx="1188" cy="132" r="33"/><circle cx="1254" cy="132" r="33"/><circle cx="1320" cy="132" r="33"/><circle cx="1386" cy="132" r="33"/><circle cx="1452" cy="132" r="33"/><circle cx="1518" cy="132" r="33"/><circle cx="1584" cy="132" r="33"/><circle cx="1650" cy="132" r="33"/><circle cx="-66" cy="198" r="33"/><circle cx="0" cy="198" r="33"/><circle cx="66" cy="198" r="33"/><circle cx="132" cy="198" r="33"/><circle cx="198" cy="198" r="33"/><circle cx="264" cy="198" r="33"/><circle cx="330" cy="198" r="33"/><circle cx="396" cy="198" r="33"/><circle cx="462" cy="198" r="33"/><circle cx="528" cy="198" r="33"/><circle cx="594" cy="198" r="33"/><circle cx="660" cy="198" r="33"/><circle cx="726" cy="198" r="33"/><circle cx="792" cy="198" r="33"/><circle cx="858" cy="198" r="33"/><circle cx="924" cy="198" r="33"/><circle cx="990" cy="198" r="33"/><circle cx="1056" cy="198" r="33"/><circle cx="1122" cy="198" r="33"/><circle cx="1188" cy="198" r="33"/><circle cx="1254" cy="198" r="33"/><circle cx="1320" cy="198" r="33"/><circle cx="1386" cy="198" r="33"/><circle cx="1452" cy="198" r="33"/><circle cx="1518" cy="198" r="33"/><circle cx="1584" cy="198" r="33"/><circle cx="1650" cy="198" r="33"/><circle cx="-66" cy="264" r="33"/><circle cx="0" cy="264" r="33"/><circle cx="66" cy="264" r="33"/><circle cx="132" cy="264" r="33"/><circle cx="198" cy="264" r="33"/><circle cx="264" cy="264" r="33"/><circle cx="330" cy="264" r="33"/><circle cx="396" cy="264" r="33"/><circle cx="462" cy="264" r="33"/><circle cx="528" cy="264" r="33"/><circle cx="594" cy="264" r="33"/><circle cx="660" cy="264" r="33"/><circle cx="726" cy="264" r="33"/><circle cx="792" cy="264" r="33"/><circle cx="858" cy="264" r="33"/><circle cx="924" cy="264" r="33"/><circle cx="990" cy="264" r="33"/><circle cx="1056" cy="264" r="33"/><circle cx="1122" cy="264" r="33"/><circle cx="1188" cy="264" r="33"/><circle cx="1254" cy="264" r="33"/><circle cx="1320" cy="264" r="33"/><circle cx="1386" cy="264" r="33"/><circle cx="1452" cy="264" r="33"/><circle cx="1518" cy="264" r="33"/><circle cx="1584" cy="264" r="33"/><circle cx="1650" cy="264" r="33"/><circle cx="-66" cy="330" r="33"/><circle cx="0" cy="330" r="33"/><circle cx="66" cy="330" r="33"/><circle cx="132" cy="330" r="33"/><circle cx="198" cy="330" r="33"/><circle cx="264" cy="330" r="33"/><circle cx="330" cy="330" r="33"/><circle cx="396" cy="330" r="33"/><circle cx="462" cy="330" r="33"/><circle cx="528" cy="330" r="33"/><circle cx="594" cy="330" r="33"/><circle cx="660" cy="330" r="33"/><circle cx="726" cy="330" r="33"/><circle cx="792" cy="330" r="33"/><circle cx="858" cy="330" r="33"/><circle cx="924" cy="330" r="33"/><circle cx="990" cy="330" r="33"/><circle cx="1056" cy="330" r="33"/><circle cx="1122" cy="330" r="33"/><circle cx="1188" cy="330" r="33"/><circle cx="1254" cy="330" r="33"/><circle cx="1320" cy="330" r="33"/><circle cx="1386" cy="330" r="33"/><circle cx="1452" cy="330" r="33"/><circle cx="1518" cy="330" r="33"/><circle cx="1584" cy="330" r="33"/><circle cx="1650" cy="330" r="33"/><circle cx="-66" cy="396" r="33"/><circle cx="0" cy="396" r="33"/><circle cx="66" cy="396" r="33"/><circle cx="132" cy="396" r="33"/><circle cx="198" cy="396" r="33"/><circle cx="264" cy="396" r="33"/><circle cx="330" cy="396" r="33"/><circle cx="396" cy="396" r="33"/><circle cx="462" cy="396" r="33"/><circle cx="528" cy="396" r="33"/><circle cx="594" cy="396" r="33"/><circle cx="660" cy="396" r="33"/><circle cx="726" cy="396" r="33"/><circle cx="792" cy="396" r="33"/><circle cx="858" cy="396" r="33"/><circle cx="924" cy="396" r="33"/><circle cx="990" cy="396" r="33"/><circle cx="1056" cy="396" r="33"/><circle cx="1122" cy="396" r="33"/><circle cx="1188" cy="396" r="33"/><circle cx="1254" cy="396" r="33"/><circle cx="1320" cy="396" r="33"/><circle cx="1386" cy="396" r="33"/><circle cx="1452" cy="396" r="33"/><circle cx="1518" cy="396" r="33"/><circle cx="1584" cy="396" r="33"/><circle cx="1650" cy="396" r="33"/><circle cx="-66" cy="462" r="33"/><circle cx="0" cy="462" r="33"/><circle cx="66" cy="462" r="33"/><circle cx="132" cy="462" r="33"/><circle cx="198" cy="462" r="33"/><circle cx="264" cy="462" r="33"/><circle cx="330" cy="462" r="33"/><circle cx="396" cy="462" r="33"/><circle cx="462" cy="462" r="33"/><circle cx="528" cy="462" r="33"/><circle cx="594" cy="462" r="33"/><circle cx="660" cy="462" r="33"/><circle cx="726" cy="462" r="33"/><circle cx="792" cy="462" r="33"/><circle cx="858" cy="462" r="33"/><circle cx="924" cy="462" r="33"/><circle cx="990" cy="462" r="33"/><circle cx="1056" cy="462" r="33"/><circle cx="1122" cy="462" r="33"/><circle cx="1188" cy="462" r="33"/><circle cx="1254" cy="462" r="33"/><circle cx="1320" cy="462" r="33"/><circle cx="1386" cy="462" r="33"/><circle cx="1452" cy="462" r="33"/><circle cx="1518" cy="462" r="33"/><circle cx="1584" cy="462" r="33"/><circle cx="1650" cy="462" r="33"/><circle cx="-66" cy="528" r="33"/><circle cx="0" cy="528" r="33"/><circle cx="66" cy="528" r="33"/><circle cx="132" cy="528" r="33"/><circle cx="198" cy="528" r="33"/><circle cx="264" cy="528" r="33"/><circle cx="330" cy="528" r="33"/><circle cx="396" cy="528" r="33"/><circle cx="462" cy="528" r="33"/><circle cx="528" cy="528" r="33"/><circle cx="594" cy="528" r="33"/><circle cx="660" cy="528" r="33"/><circle cx="726" cy="528" r="33"/><circle cx="792" cy="528" r="33"/><circle cx="858" cy="528" r="33"/><circle cx="924" cy="528" r="33"/><circle cx="990" cy="528" r="33"/><circle cx="1056" cy="528" r="33"/><circle cx="1122" cy="528" r="33"/><circle cx="1188" cy="528" r="33"/><circle cx="1254" cy="528" r="33"/><circle cx="1320" cy="528" r="33"/><circle cx="1386" cy="528" r="33"/><circle cx="1452" cy="528" r="33"/><circle cx="1518" cy="528" r="33"/><circle cx="1584" cy="528" r="33"/><circle cx="1650" cy="528" r="33"/><circle cx="-66" cy="594" r="33"/><circle cx="0" cy="594" r="33"/><circle cx="66" cy="594" r="33"/><circle cx="132" cy="594" r="33"/><circle cx="198" cy="594" r="33"/><circle cx="264" cy="594" r="33"/><circle cx="330" cy="594" r="33"/><circle cx="396" cy="594" r="33"/><circle cx="462" cy="594" r="33"/><circle cx="528" cy="594" r="33"/><circle cx="594" cy="594" r="33"/><circle cx="660" cy="594" r="33"/><circle cx="726" cy="594" r="33"/><circle cx="792" cy="594" r="33"/><circle cx="858" cy="594" r="33"/><circle cx="924" cy="594" r="33"/><circle cx="990" cy="594" r="33"/><circle cx="1056" cy="594" r="33"/><circle cx="1122" cy="594" r="33"/><circle cx="1188" cy="594" r="33"/><circle cx="1254" cy="594" r="33"/><circle cx="1320" cy="594" r="33"/><circle cx="1386" cy="594" r="33"/><circle cx="1452" cy="594" r="33"/><circle cx="1518" cy="594" r="33"/><circle cx="1584" cy="594" r="33"/><circle cx="1650" cy="594" r="33"/><circle cx="-66" cy="660" r="33"/><circle cx="0" cy="660" r="33"/><circle cx="66" cy="660" r="33"/><circle cx="132" cy="660" r="33"/><circle cx="198" cy="660" r="33"/><circle cx="264" cy="660" r="33"/><circle cx="330" cy="660" r="33"/><circle cx="396" cy="660" r="33"/><circle cx="462" cy="660" r="33"/><circle cx="528" cy="660" r="33"/><circle cx="594" cy="660" r="33"/><circle cx="660" cy="660" r="33"/><circle cx="726" cy="660" r="33"/><circle cx="792" cy="660" r="33"/><circle cx="858" cy="660" r="33"/><circle cx="924" cy="660" r="33"/><circle cx="990" cy="660" r="33"/><circle cx="1056" cy="660" r="33"/><circle cx="1122" cy="660" r="33"/><circle cx="1188" cy="660" r="33"/><circle cx="1254" cy="660" r="33"/><circle cx="1320" cy="660" r="33"/><circle cx="1386" cy="660" r="33"/><circle cx="1452" cy="660" r="33"/><circle cx="1518" cy="660" r="33"/><circle cx="1584" cy="660" r="33"/><circle cx="1650" cy="660" r="33"/></g><g transform="translate(1088 228)" fill="#6aa8b3" opacity=".3"><path d="M0 -60 C36 -88.8 25.92 -121.68 0 -156 C-25.92 -121.68 -36 -88.8 0 -60 Z" transform="rotate(0)"/><path d="M0 -60 C36 -88.8 25.92 -121.68 0 -156 C-25.92 -121.68 -36 -88.8 0 -60 Z" transform="rotate(45)"/><path d="M0 -60 C36 -88.8 25.92 -121.68 0 -156 C-25.92 -121.68 -36 -88.8 0 -60 Z" transform="rotate(90)"/><path d="M0 -60 C36 -88.8 25.92 -121.68 0 -156 C-25.92 -121.68 -36 -88.8 0 -60 Z" transform="rotate(135)"/><path d="M0 -60 C36 -88.8 25.92 -121.68 0 -156 C-25.92 -121.68 -36 -88.8 0 -60 Z" transform="rotate(180)"/><path d="M0 -60 C36 -88.8 25.92 -121.68 0 -156 C-25.92 -121.68 -36 -88.8 0 -60 Z" transform="rotate(225)"/><path d="M0 -60 C36 -88.8 25.92 -121.68 0 -156 C-25.92 -121.68 -36 -88.8 0 -60 Z" transform="rotate(270)"/><path d="M0 -60 C36 -88.8 25.92 -121.68 0 -156 C-25.92 -121.68 -36 -88.8 0 -60 Z" transform="rotate(315)"/></g><circle cx="1088" cy="228" r="54" fill="#6aa8b3" opacity=".55"/><circle cx="389.49" cy="1.16" r="2.34" fill="#6aa8b3" opacity="0.16"/><circle cx="75.1" cy="496.99" r="1.72" fill="#6aa8b3" opacity="0.09"/><circle cx="277.39" cy="403.99" r="1.48" fill="#6aa8b3" opacity="0.24"/><circle cx="278.71" cy="581.79" r="1.32" fill="#6aa8b3" opacity="0.16"/><circle cx="988.26" cy="360.29" r="0.72" fill="#6aa8b3" opacity="0.19"/><circle cx="1048.81" cy="141.27" r="0.88" fill="#6aa8b3" opacity="0.21"/><circle cx="388.76" cy="395.91" r="1.38" fill="#6aa8b3" opacity="0.12"/><circle cx="1344.48" cy="517.51" r="1.67" fill="#6aa8b3" opacity="0.29"/><circle cx="1078.04" cy="538.98" r="1.74" fill="#6aa8b3" opacity="0.11"/><circle cx="1415.13" cy="474.22" r="0.7" fill="#6aa8b3" opacity="0.16"/><circle cx="228.41" cy="592.98" r="1.08" fill="#6aa8b3" opacity="0.17"/><circle cx="891.11" cy="88.5" r="1.94" fill="#6aa8b3" opacity="0.2"/><circle cx="1525.94" cy="147.24" r="2.26" fill="#6aa8b3" opacity="0.19"/><circle cx="1374.36" cy="180.19" r="0.81" fill="#6aa8b3" opacity="0.17"/><circle cx="1211.11" cy="125.03" r="2.37" fill="#6aa8b3" opacity="0.24"/><circle cx="729.05" cy="278.62" r="0.89" fill="#6aa8b3" opacity="0.17"/><circle cx="1019.39" cy="469.08" r="0.79" fill="#6aa8b3" opacity="0.11"/><circle cx="1472.15" cy="526.94" r="1.86" fill="#6aa8b3" opacity="0.23"/><circle cx="21.93" cy="564.65" r="1.66" fill="#6aa8b3" opacity="0.23"/><circle cx="1264.1" cy="323.89" r="0.69" fill="#6aa8b3" opacity="0.22"/><circle cx="566.13" cy="0.04" r="2.29" fill="#6aa8b3" opacity="0.16"/><circle cx="699.42" cy="303.13" r="1.93" fill="#6aa8b3" opacity="0.21"/><circle cx="1116.28" cy="264.7" r="1.09" fill="#6aa8b3" opacity="0.24"/><circle cx="1197.35" cy="449.99" r="1.29" fill="#6aa8b3" opacity="0.09"/><circle cx="1594.21" cy="184.7" r="2.04" fill="#6aa8b3" opacity="0.08"/><circle cx="992.44" cy="355.81" r="1.43" fill="#6aa8b3" opacity="0.2"/><rect width="1600" height="600" filter="url(#grg19)" opacity="0.07"/></g></svg>
