<svg xmlns="http://www.w3.org/2000/svg" viewBox="0 0 900 675" width="900" height="675" role="img" aria-label="A class in progress"><title>A class in progress</title><defs><linearGradient id="bgg113" x1="0" y1="0" x2="0.4" y2="1"><stop offset="0" stop-color="#0a2e3a"/><stop offset="1" stop-color="#1d6d7e"/></linearGradient><radialGradient id="glg113" cx="0.68" cy="0.38" r="0.75"><stop offset="0" stop-color="#6aa8b3" stop-opacity="0.42"/><stop offset="1" stop-color="#6aa8b3" stop-opacity="0"/></radialGradient><filter id="grg113" x="0" y="0" width="100%" height="100%"><feTurbulence type="fractalNoise" baseFrequency="0.8" numOctaves="3" seed="113"/><feColorMatrix type="saturate" values="0"/></filter><clipPath id="cpg113"><rect width="900" height="675"/></clipPath></defs><g clip-path="url(#cpg113)"><rect width="900" height="675" fill="url(#bgg113)"/><rect width="900" height="675" fill="url(#glg113)"/><g stroke="#e3c177" stroke-width="1" opacity=".18"><circle cx="612" cy="256.5" r="162" fill="none"/><circle cx="612" cy="256.5" r="222.75" fill="none"/><circle cx="612" cy="256.5" r="283.5" fill="none"/><circle cx="612" cy="256.5" r="344.25" fill="none"/><circle cx="612" cy="256.5" r="405" fill="none"/><circle cx="612" cy="256.5" r="465.75" fill="none"/></g><g transform="translate(612 256.5)" fill="#e3c177" opacity=".12"><path d="M0 -162 C37.13 -206.55 26.73 -242.19 0 -310.5 C-26.73 -242.19 -37.12 -206.55 0 -162 Z" transform="rotate(0)"/><path d="M0 -162 C37.13 -206.55 26.73 -242.19 0 -310.5 C-26.73 -242.19 -37.12 -206.55 0 -162 Z" transform="rotate(30)"/><path d="M0 -162 C37.13 -206.55 26.73 -242.19 0 -310.5 C-26.73 -242.19 -37.12 -206.55 0 -162 Z" transform="rotate(60)"/><path d="M0 -162 C37.13 -206.55 26.73 -242.19 0 -310.5 C-26.73 -242.19 -37.12 -206.55 0 -162 Z" transform="rotate(90)"/><path d="M0 -162 C37.13 -206.55 26.73 -242.19 0 -310.5 C-26.73 -242.19 -37.12 -206.55 0 -162 Z" transform="rotate(120)"/><path d="M0 -162 C37.13 -206.55 26.73 -242.19 0 -310.5 C-26.73 -242.19 -37.12 -206.55 0 -162 Z" transform="rotate(150)"/><path d="M0 -162 C37.13 -206.55 26.73 -242.19 0 -310.5 C-26.73 -242.19 -37.12 -206.55 0 -162 Z" transform="rotate(180)"/><path d="M0 -162 C37.13 -206.55 26.73 -242.19 0 -310.5 C-26.73 -242.19 -37.12 -206.55 0 -162 Z" transform="rotate(210)"/><path d="M0 -162 C37.13 -206.55 26.73 -242.19 0 -310.5 C-26.73 -242.19 -37.12 -206.55 0 -162 Z" transform="rotate(240)"/><path d="M0 -162 C37.13 -206.55 26.73 -242.19 0 -310.5 C-26.73 -242.19 -37.12 -206.55 0 -162 Z" transform="rotate(270)"/><path d="M0 -162 C37.13 -206.55 26.73 -242.19 0 -310.5 C-26.73 -242.19 -37.12 -206.55 0 -162 Z" transform="rotate(300)"/><path d="M0 -162 C37.13 -206.55 26.73 -242.19 0 -310.5 C-26.73 -242.19 -37.12 -206.55 0 -162 Z" transform="rotate(330)"/></g><circle cx="612" cy="148.5" r="60.75" fill="#6aa8b3" opacity=".7"/><g transform="translate(612 405) scale(2.11)" fill="#e3c177"><circle cx="0" cy="-86" r="21"/><path d="M0 -66c-20 0-33 16-37 36l-8 38c-2 10 4 16 12 16h66c8 0 14-6 12-16l-8-38c-4-20-17-36-37-36z"/><path d="M-58 24h116c7 0 11 5 8 11-9 17-33 27-66 27s-57-10-66-27c-3-6 1-11 8-11z"/></g><circle cx="251.88" cy="356.46" r="1" fill="#6aa8b3" opacity="0.27"/><circle cx="625.29" cy="76.37" r="0.71" fill="#6aa8b3" opacity="0.12"/><circle cx="893.33" cy="49.6" r="0.74" fill="#6aa8b3" opacity="0.11"/><circle cx="899.23" cy="297.34" r="2.3" fill="#6aa8b3" opacity="0.12"/><circle cx="12.74" cy="19.78" r="0.86" fill="#6aa8b3" opacity="0.27"/><circle cx="555.92" cy="95.42" r="0.89" fill="#6aa8b3" opacity="0.16"/><circle cx="250.52" cy="128.31" r="2.09" fill="#6aa8b3" opacity="0.14"/><circle cx="869.84" cy="600.66" r="2.16" fill="#6aa8b3" opacity="0.2"/><circle cx="202.63" cy="606.96" r="2.48" fill="#6aa8b3" opacity="0.28"/><circle cx="362.17" cy="39.49" r="1.65" fill="#6aa8b3" opacity="0.11"/><circle cx="898.1" cy="414.02" r="2.34" fill="#6aa8b3" opacity="0.24"/><circle cx="293.9" cy="43.01" r="2.61" fill="#6aa8b3" opacity="0.14"/><circle cx="857.85" cy="357.49" r="2.43" fill="#6aa8b3" opacity="0.15"/><circle cx="540.26" cy="522.6" r="1.9" fill="#6aa8b3" opacity="0.1"/><circle cx="434.73" cy="185.43" r="1.78" fill="#6aa8b3" opacity="0.17"/><circle cx="246.39" cy="662.58" r="0.81" fill="#6aa8b3" opacity="0.08"/><circle cx="134.76" cy="443.57" r="1.44" fill="#6aa8b3" opacity="0.24"/><circle cx="564.23" cy="630.15" r="0.65" fill="#6aa8b3" opacity="0.1"/><circle cx="119.74" cy="325.03" r="1.5" fill="#6aa8b3" opacity="0.28"/><circle cx="470.73" cy="627.51" r="2.26" fill="#6aa8b3" opacity="0.19"/><circle cx="890.97" cy="287.28" r="1.92" fill="#6aa8b3" opacity="0.19"/><circle cx="67.2" cy="661.11" r="0.85" fill="#6aa8b3" opacity="0.27"/><circle cx="654.34" cy="661.28" r="0.91" fill="#6aa8b3" opacity="0.27"/><circle cx="560.06" cy="353.12" r="1.5" fill="#6aa8b3" opacity="0.09"/><circle cx="166.6" cy="302.76" r="1.24" fill="#6aa8b3" opacity="0.18"/><circle cx="22.64" cy="145.14" r="0.6" fill="#6aa8b3" opacity="0.18"/><rect width="900" height="675" filter="url(#grg113)" opacity="0.07"/></g></svg>
