<svg xmlns="http://www.w3.org/2000/svg" viewBox="0 0 900 675" width="900" height="675" role="img" aria-label="The entrance"><title>The entrance</title><defs><linearGradient id="bgg137" x1="0" y1="0" x2="0.4" y2="1"><stop offset="0" stop-color="#f6efe3"/><stop offset="1" stop-color="#efe5d4"/></linearGradient><radialGradient id="glg137" cx="0.68" cy="0.38" r="0.75"><stop offset="0" stop-color="#ffffff" stop-opacity="0.7"/><stop offset="1" stop-color="#ffffff" stop-opacity="0"/></radialGradient><filter id="grg137" x="0" y="0" width="100%" height="100%"><feTurbulence type="fractalNoise" baseFrequency="0.8" numOctaves="3" seed="137"/><feColorMatrix type="saturate" values="0"/></filter><clipPath id="cpg137"><rect width="900" height="675"/></clipPath></defs><g clip-path="url(#cpg137)"><rect width="900" height="675" fill="url(#bgg137)"/><rect width="900" height="675" fill="url(#glg137)"/><g stroke="#a97620" stroke-width="1" fill="none" opacity=".24"><circle cx="-74.25" cy="-74.25" r="37.13"/><circle cx="0" cy="-74.25" r="37.13"/><circle cx="74.25" cy="-74.25" r="37.13"/><circle cx="148.5" cy="-74.25" r="37.13"/><circle cx="222.75" cy="-74.25" r="37.13"/><circle cx="297" cy="-74.25" r="37.13"/><circle cx="371.25" cy="-74.25" r="37.13"/><circle cx="445.5" cy="-74.25" r="37.13"/><circle cx="519.75" cy="-74.25" r="37.13"/><circle cx="594" cy="-74.25" r="37.13"/><circle cx="668.25" cy="-74.25" r="37.13"/><circle cx="742.5" cy="-74.25" r="37.13"/><circle cx="816.75" cy="-74.25" r="37.13"/><circle cx="891" cy="-74.25" r="37.13"/><circle cx="965.25" cy="-74.25" r="37.13"/><circle cx="-74.25" cy="0" r="37.13"/><circle cx="0" cy="0" r="37.13"/><circle cx="74.25" cy="0" r="37.13"/><circle cx="148.5" cy="0" r="37.13"/><circle cx="222.75" cy="0" r="37.13"/><circle cx="297" cy="0" r="37.13"/><circle cx="371.25" cy="0" r="37.13"/><circle cx="445.5" cy="0" r="37.13"/><circle cx="519.75" cy="0" r="37.13"/><circle cx="594" cy="0" r="37.13"/><circle cx="668.25" cy="0" r="37.13"/><circle cx="742.5" cy="0" r="37.13"/><circle cx="816.75" cy="0" r="37.13"/><circle cx="891" cy="0" r="37.13"/><circle cx="965.25" cy="0" r="37.13"/><circle cx="-74.25" cy="74.25" r="37.13"/><circle cx="0" cy="74.25" r="37.13"/><circle cx="74.25" cy="74.25" r="37.13"/><circle cx="148.5" cy="74.25" r="37.13"/><circle cx="222.75" cy="74.25" r="37.13"/><circle cx="297" cy="74.25" r="37.13"/><circle cx="371.25" cy="74.25" r="37.13"/><circle cx="445.5" cy="74.25" r="37.13"/><circle cx="519.75" cy="74.25" r="37.13"/><circle cx="594" cy="74.25" r="37.13"/><circle cx="668.25" cy="74.25" r="37.13"/><circle cx="742.5" cy="74.25" r="37.13"/><circle cx="816.75" cy="74.25" r="37.13"/><circle cx="891" cy="74.25" r="37.13"/><circle cx="965.25" cy="74.25" r="37.13"/><circle cx="-74.25" cy="148.5" r="37.13"/><circle cx="0" cy="148.5" r="37.13"/><circle cx="74.25" cy="148.5" r="37.13"/><circle cx="148.5" cy="148.5" r="37.13"/><circle cx="222.75" cy="148.5" r="37.13"/><circle cx="297" cy="148.5" r="37.13"/><circle cx="371.25" cy="148.5" r="37.13"/><circle cx="445.5" cy="148.5" r="37.13"/><circle cx="519.75" cy="148.5" r="37.13"/><circle cx="594" cy="148.5" r="37.13"/><circle cx="668.25" cy="148.5" r="37.13"/><circle cx="742.5" cy="148.5" r="37.13"/><circle cx="816.75" cy="148.5" r="37.13"/><circle cx="891" cy="148.5" r="37.13"/><circle cx="965.25" cy="148.5" r="37.13"/><circle cx="-74.25" cy="222.75" r="37.13"/><circle cx="0" cy="222.75" r="37.13"/><circle cx="74.25" cy="222.75" r="37.13"/><circle cx="148.5" cy="222.75" r="37.13"/><circle cx="222.75" cy="222.75" r="37.13"/><circle cx="297" cy="222.75" r="37.13"/><circle cx="371.25" cy="222.75" r="37.13"/><circle cx="445.5" cy="222.75" r="37.13"/><circle cx="519.75" cy="222.75" r="37.13"/><circle cx="594" cy="222.75" r="37.13"/><circle cx="668.25" cy="222.75" r="37.13"/><circle cx="742.5" cy="222.75" r="37.13"/><circle cx="816.75" cy="222.75" r="37.13"/><circle cx="891" cy="222.75" r="37.13"/><circle cx="965.25" cy="222.75" r="37.13"/><circle cx="-74.25" cy="297" r="37.13"/><circle cx="0" cy="297" r="37.13"/><circle cx="74.25" cy="297" r="37.13"/><circle cx="148.5" cy="297" r="37.13"/><circle cx="222.75" cy="297" r="37.13"/><circle cx="297" cy="297" r="37.13"/><circle cx="371.25" cy="297" r="37.13"/><circle cx="445.5" cy="297" r="37.13"/><circle cx="519.75" cy="297" r="37.13"/><circle cx="594" cy="297" r="37.13"/><circle cx="668.25" cy="297" r="37.13"/><circle cx="742.5" cy="297" r="37.13"/><circle cx="816.75" cy="297" r="37.13"/><circle cx="891" cy="297" r="37.13"/><circle cx="965.25" cy="297" r="37.13"/><circle cx="-74.25" cy="371.25" r="37.13"/><circle cx="0" cy="371.25" r="37.13"/><circle cx="74.25" cy="371.25" r="37.13"/><circle cx="148.5" cy="371.25" r="37.13"/><circle cx="222.75" cy="371.25" r="37.13"/><circle cx="297" cy="371.25" r="37.13"/><circle cx="371.25" cy="371.25" r="37.13"/><circle cx="445.5" cy="371.25" r="37.13"/><circle cx="519.75" cy="371.25" r="37.13"/><circle cx="594" cy="371.25" r="37.13"/><circle cx="668.25" cy="371.25" r="37.13"/><circle cx="742.5" cy="371.25" r="37.13"/><circle cx="816.75" cy="371.25" r="37.13"/><circle cx="891" cy="371.25" r="37.13"/><circle cx="965.25" cy="371.25" r="37.13"/><circle cx="-74.25" cy="445.5" r="37.13"/><circle cx="0" cy="445.5" r="37.13"/><circle cx="74.25" cy="445.5" r="37.13"/><circle cx="148.5" cy="445.5" r="37.13"/><circle cx="222.75" cy="445.5" r="37.13"/><circle cx="297" cy="445.5" r="37.13"/><circle cx="371.25" cy="445.5" r="37.13"/><circle cx="445.5" cy="445.5" r="37.13"/><circle cx="519.75" cy="445.5" r="37.13"/><circle cx="594" cy="445.5" r="37.13"/><circle cx="668.25" cy="445.5" r="37.13"/><circle cx="742.5" cy="445.5" r="37.13"/><circle cx="816.75" cy="445.5" r="37.13"/><circle cx="891" cy="445.5" r="37.13"/><circle cx="965.25" cy="445.5" r="37.13"/><circle cx="-74.25" cy="519.75" r="37.13"/><circle cx="0" cy="519.75" r="37.13"/><circle cx="74.25" cy="519.75" r="37.13"/><circle cx="148.5" cy="519.75" r="37.13"/><circle cx="222.75" cy="519.75" r="37.13"/><circle cx="297" cy="519.75" r="37.13"/><circle cx="371.25" cy="519.75" r="37.13"/><circle cx="445.5" cy="519.75" r="37.13"/><circle cx="519.75" cy="519.75" r="37.13"/><circle cx="594" cy="519.75" r="37.13"/><circle cx="668.25" cy="519.75" r="37.13"/><circle cx="742.5" cy="519.75" r="37.13"/><circle cx="816.75" cy="519.75" r="37.13"/><circle cx="891" cy="519.75" r="37.13"/><circle cx="965.25" cy="519.75" r="37.13"/><circle cx="-74.25" cy="594" r="37.13"/><circle cx="0" cy="594" r="37.13"/><circle cx="74.25" cy="594" r="37.13"/><circle cx="148.5" cy="594" r="37.13"/><circle cx="222.75" cy="594" r="37.13"/><circle cx="297" cy="594" r="37.13"/><circle cx="371.25" cy="594" r="37.13"/><circle cx="445.5" cy="594" r="37.13"/><circle cx="519.75" cy="594" r="37.13"/><circle cx="594" cy="594" r="37.13"/><circle cx="668.25" cy="594" r="37.13"/><circle cx="742.5" cy="594" r="37.13"/><circle cx="816.75" cy="594" r="37.13"/><circle cx="891" cy="594" r="37.13"/><circle cx="965.25" cy="594" r="37.13"/><circle cx="-74.25" cy="668.25" r="37.13"/><circle cx="0" cy="668.25" r="37.13"/><circle cx="74.25" cy="668.25" r="37.13"/><circle cx="148.5" cy="668.25" r="37.13"/><circle cx="222.75" cy="668.25" r="37.13"/><circle cx="297" cy="668.25" r="37.13"/><circle cx="371.25" cy="668.25" r="37.13"/><circle cx="445.5" cy="668.25" r="37.13"/><circle cx="519.75" cy="668.25" r="37.13"/><circle cx="594" cy="668.25" r="37.13"/><circle cx="668.25" cy="668.25" r="37.13"/><circle cx="742.5" cy="668.25" r="37.13"/><circle cx="816.75" cy="668.25" r="37.13"/><circle cx="891" cy="668.25" r="37.13"/><circle cx="965.25" cy="668.25" r="37.13"/><circle cx="-74.25" cy="742.5" r="37.13"/><circle cx="0" cy="742.5" r="37.13"/><circle cx="74.25" cy="742.5" r="37.13"/><circle cx="148.5" cy="742.5" r="37.13"/><circle cx="222.75" cy="742.5" r="37.13"/><circle cx="297" cy="742.5" r="37.13"/><circle cx="371.25" cy="742.5" r="37.13"/><circle cx="445.5" cy="742.5" r="37.13"/><circle cx="519.75" cy="742.5" r="37.13"/><circle cx="594" cy="742.5" r="37.13"/><circle cx="668.25" cy="742.5" r="37.13"/><circle cx="742.5" cy="742.5" r="37.13"/><circle cx="816.75" cy="742.5" r="37.13"/><circle cx="891" cy="742.5" r="37.13"/><circle cx="965.25" cy="742.5" r="37.13"/></g><g transform="translate(612 256.5)" fill="#ffffff" opacity=".3"><path d="M0 -67.5 C40.5 -99.9 29.16 -136.89 0 -175.5 C-29.16 -136.89 -40.5 -99.9 0 -67.5 Z" transform="rotate(0)"/><path d="M0 -67.5 C40.5 -99.9 29.16 -136.89 0 -175.5 C-29.16 -136.89 -40.5 -99.9 0 -67.5 Z" transform="rotate(45)"/><path d="M0 -67.5 C40.5 -99.9 29.16 -136.89 0 -175.5 C-29.16 -136.89 -40.5 -99.9 0 -67.5 Z" transform="rotate(90)"/><path d="M0 -67.5 C40.5 -99.9 29.16 -136.89 0 -175.5 C-29.16 -136.89 -40.5 -99.9 0 -67.5 Z" transform="rotate(135)"/><path d="M0 -67.5 C40.5 -99.9 29.16 -136.89 0 -175.5 C-29.16 -136.89 -40.5 -99.9 0 -67.5 Z" transform="rotate(180)"/><path d="M0 -67.5 C40.5 -99.9 29.16 -136.89 0 -175.5 C-29.16 -136.89 -40.5 -99.9 0 -67.5 Z" transform="rotate(225)"/><path d="M0 -67.5 C40.5 -99.9 29.16 -136.89 0 -175.5 C-29.16 -136.89 -40.5 -99.9 0 -67.5 Z" transform="rotate(270)"/><path d="M0 -67.5 C40.5 -99.9 29.16 -136.89 0 -175.5 C-29.16 -136.89 -40.5 -99.9 0 -67.5 Z" transform="rotate(315)"/></g><circle cx="612" cy="256.5" r="60.75" fill="#ffffff" opacity=".55"/><circle cx="260.25" cy="475.86" r="1.91" fill="#ffffff" opacity="0.24"/><circle cx="620.96" cy="39.28" r="1.43" fill="#ffffff" opacity="0.11"/><circle cx="181.58" cy="305.26" r="2.61" fill="#ffffff" opacity="0.2"/><circle cx="399.44" cy="191.79" r="1.2" fill="#ffffff" opacity="0.16"/><circle cx="620.87" cy="266.03" r="1.21" fill="#ffffff" opacity="0.11"/><circle cx="183.39" cy="438.25" r="1.07" fill="#ffffff" opacity="0.1"/><circle cx="86.31" cy="535.65" r="0.79" fill="#ffffff" opacity="0.23"/><circle cx="362.66" cy="476.12" r="2.37" fill="#ffffff" opacity="0.14"/><circle cx="310.18" cy="305.52" r="1.51" fill="#ffffff" opacity="0.09"/><circle cx="864.17" cy="530.91" r="0.73" fill="#ffffff" opacity="0.22"/><circle cx="520.13" cy="651" r="1.14" fill="#ffffff" opacity="0.09"/><circle cx="738.83" cy="28.57" r="1.61" fill="#ffffff" opacity="0.1"/><circle cx="91.77" cy="18.7" r="1.62" fill="#ffffff" opacity="0.29"/><circle cx="729.75" cy="360.12" r="1.95" fill="#ffffff" opacity="0.29"/><circle cx="582.43" cy="555.9" r="2.48" fill="#ffffff" opacity="0.27"/><circle cx="721.61" cy="263.42" r="0.78" fill="#ffffff" opacity="0.24"/><circle cx="846.17" cy="307.19" r="2.37" fill="#ffffff" opacity="0.13"/><circle cx="171.33" cy="22.14" r="1.05" fill="#ffffff" opacity="0.18"/><circle cx="530.14" cy="303.28" r="2.26" fill="#ffffff" opacity="0.18"/><circle cx="620" cy="306.93" r="2.66" fill="#ffffff" opacity="0.16"/><circle cx="252.04" cy="217" r="1.96" fill="#ffffff" opacity="0.21"/><circle cx="386.04" cy="383.79" r="1.38" fill="#ffffff" opacity="0.2"/><circle cx="258.96" cy="136.53" r="2.51" fill="#ffffff" opacity="0.28"/><circle cx="339.6" cy="414.55" r="2.13" fill="#ffffff" opacity="0.24"/><circle cx="267.42" cy="355.74" r="1.93" fill="#ffffff" opacity="0.26"/><circle cx="58.23" cy="424.67" r="2.4" fill="#ffffff" opacity="0.1"/><rect width="900" height="675" filter="url(#grg137)" opacity="0.05"/></g></svg>
