<svg xmlns="http://www.w3.org/2000/svg" viewBox="0 0 900 675" width="900" height="675" role="img" aria-label="Festival evening"><title>Festival evening</title><defs><linearGradient id="bgg127" x1="0" y1="0" x2="0.4" y2="1"><stop offset="0" stop-color="#0a2e3a"/><stop offset="1" stop-color="#8a5a18"/></linearGradient><radialGradient id="glg127" cx="0.68" cy="0.38" r="0.75"><stop offset="0" stop-color="#f4e4c2" stop-opacity="0.42"/><stop offset="1" stop-color="#f4e4c2" stop-opacity="0"/></radialGradient><filter id="grg127" x="0" y="0" width="100%" height="100%"><feTurbulence type="fractalNoise" baseFrequency="0.8" numOctaves="3" seed="127"/><feColorMatrix type="saturate" values="0"/></filter><clipPath id="cpg127"><rect width="900" height="675"/></clipPath></defs><g clip-path="url(#cpg127)"><rect width="900" height="675" fill="url(#bgg127)"/><rect width="900" height="675" fill="url(#glg127)"/><g stroke="#f4e4c2" stroke-width="1" opacity=".16"><circle cx="612" cy="256.5" r="121.5" fill="none"/><circle cx="612" cy="256.5" r="175.5" fill="none"/><circle cx="612" cy="256.5" r="229.5" fill="none"/><circle cx="612" cy="256.5" r="283.5" fill="none"/><circle cx="612" cy="256.5" r="337.5" fill="none"/><circle cx="612" cy="256.5" r="391.5" fill="none"/></g><g transform="translate(612 256.5)" stroke="#f4e4c2" stroke-width="1" opacity=".14"><line x1="135" y1="0" x2="371.25" y2="0"/><line x1="132.41" y1="26.34" x2="364.12" y2="72.43"/><line x1="124.72" y1="51.66" x2="342.99" y2="142.07"/><line x1="112.25" y1="75" x2="308.68" y2="206.26"/><line x1="95.46" y1="95.46" x2="262.51" y2="262.51"/><line x1="75" y1="112.25" x2="206.26" y2="308.68"/><line x1="51.66" y1="124.72" x2="142.07" y2="342.99"/><line x1="26.34" y1="132.41" x2="72.43" y2="364.12"/><line x1="0" y1="135" x2="0" y2="371.25"/><line x1="-26.34" y1="132.41" x2="-72.43" y2="364.12"/><line x1="-51.66" y1="124.72" x2="-142.07" y2="342.99"/><line x1="-75" y1="112.25" x2="-206.26" y2="308.68"/><line x1="-95.46" y1="95.46" x2="-262.51" y2="262.51"/><line x1="-112.25" y1="75" x2="-308.68" y2="206.26"/><line x1="-124.72" y1="51.66" x2="-342.99" y2="142.07"/><line x1="-132.41" y1="26.34" x2="-364.12" y2="72.43"/><line x1="-135" y1="0" x2="-371.25" y2="0"/><line x1="-132.41" y1="-26.34" x2="-364.12" y2="-72.43"/><line x1="-124.72" y1="-51.66" x2="-342.99" y2="-142.07"/><line x1="-112.25" y1="-75" x2="-308.68" y2="-206.26"/><line x1="-95.46" y1="-95.46" x2="-262.51" y2="-262.51"/><line x1="-75" y1="-112.25" x2="-206.26" y2="-308.68"/><line x1="-51.66" y1="-124.72" x2="-142.07" y2="-342.99"/><line x1="-26.34" y1="-132.41" x2="-72.43" y2="-364.12"/><line x1="0" y1="-135" x2="0" y2="-371.25"/><line x1="26.34" y1="-132.41" x2="72.43" y2="-364.12"/><line x1="51.66" y1="-124.72" x2="142.07" y2="-342.99"/><line x1="75" y1="-112.25" x2="206.26" y2="-308.68"/><line x1="95.46" y1="-95.46" x2="262.51" y2="-262.51"/><line x1="112.25" y1="-75" x2="308.68" y2="-206.26"/><line x1="124.72" y1="-51.66" x2="342.99" y2="-142.07"/><line x1="132.41" y1="-26.34" x2="364.12" y2="-72.43"/></g><circle cx="612" cy="256.5" r="108" fill="#f4e4c2" opacity=".28"/><g transform="translate(612 256.5) scale(2.81)"><path d="M0 -54c14 18 21 31 21 43a21 21 0 0 1-42 0c0-12 7-25 21-43z" fill="#f4e4c2"/><path d="M0 -28c6 9 9 16 9 22a9 9 0 0 1-18 0c0-6 3-13 9-22z" fill="#f4e4c2" opacity=".75"/><path d="M-34 6h68c4 0 6 3 5 7-4 13-18 21-39 21S-35 26-39 13c-1-4 1-7 5-7z" fill="#f4e4c2" opacity=".85"/></g><g transform="translate(476.73 390.95) scale(0.84)" opacity=".45"><path d="M0 -54c14 18 21 31 21 43a21 21 0 0 1-42 0c0-12 7-25 21-43z" fill="#f4e4c2"/><path d="M0 -28c6 9 9 16 9 22a9 9 0 0 1-18 0c0-6 3-13 9-22z" fill="#f4e4c2" opacity=".75"/><path d="M-34 6h68c4 0 6 3 5 7-4 13-18 21-39 21S-35 26-39 13c-1-4 1-7 5-7z" fill="#f4e4c2" opacity=".85"/></g><g transform="translate(786.82 275.12) scale(0.84)" opacity=".45"><path d="M0 -54c14 18 21 31 21 43a21 21 0 0 1-42 0c0-12 7-25 21-43z" fill="#f4e4c2"/><path d="M0 -28c6 9 9 16 9 22a9 9 0 0 1-18 0c0-6 3-13 9-22z" fill="#f4e4c2" opacity=".75"/><path d="M-34 6h68c4 0 6 3 5 7-4 13-18 21-39 21S-35 26-39 13c-1-4 1-7 5-7z" fill="#f4e4c2" opacity=".85"/></g><g transform="translate(312.93 332.39) scale(0.84)" opacity=".45"><path d="M0 -54c14 18 21 31 21 43a21 21 0 0 1-42 0c0-12 7-25 21-43z" fill="#f4e4c2"/><path d="M0 -28c6 9 9 16 9 22a9 9 0 0 1-18 0c0-6 3-13 9-22z" fill="#f4e4c2" opacity=".75"/><path d="M-34 6h68c4 0 6 3 5 7-4 13-18 21-39 21S-35 26-39 13c-1-4 1-7 5-7z" fill="#f4e4c2" opacity=".85"/></g><g transform="translate(350.82 443.19) scale(0.84)" opacity=".45"><path d="M0 -54c14 18 21 31 21 43a21 21 0 0 1-42 0c0-12 7-25 21-43z" fill="#f4e4c2"/><path d="M0 -28c6 9 9 16 9 22a9 9 0 0 1-18 0c0-6 3-13 9-22z" fill="#f4e4c2" opacity=".75"/><path d="M-34 6h68c4 0 6 3 5 7-4 13-18 21-39 21S-35 26-39 13c-1-4 1-7 5-7z" fill="#f4e4c2" opacity=".85"/></g><g transform="translate(369.2 412.49) scale(0.84)" opacity=".45"><path d="M0 -54c14 18 21 31 21 43a21 21 0 0 1-42 0c0-12 7-25 21-43z" fill="#f4e4c2"/><path d="M0 -28c6 9 9 16 9 22a9 9 0 0 1-18 0c0-6 3-13 9-22z" fill="#f4e4c2" opacity=".75"/><path d="M-34 6h68c4 0 6 3 5 7-4 13-18 21-39 21S-35 26-39 13c-1-4 1-7 5-7z" fill="#f4e4c2" opacity=".85"/></g><circle cx="377.89" cy="478.38" r="2.02" fill="#f4e4c2" opacity="0.25"/><circle cx="3.81" cy="478.47" r="0.93" fill="#f4e4c2" opacity="0.13"/><circle cx="273.79" cy="179.44" r="1.22" fill="#f4e4c2" opacity="0.08"/><circle cx="467.88" cy="239.13" r="2.54" fill="#f4e4c2" opacity="0.16"/><circle cx="88.28" cy="20.78" r="1.24" fill="#f4e4c2" opacity="0.2"/><circle cx="871.9" cy="487.81" r="2.09" fill="#f4e4c2" opacity="0.17"/><circle cx="411.94" cy="549.74" r="1.43" fill="#f4e4c2" opacity="0.2"/><circle cx="71.41" cy="116.5" r="1.13" fill="#f4e4c2" opacity="0.09"/><circle cx="596.36" cy="337.46" r="2.24" fill="#f4e4c2" opacity="0.09"/><circle cx="461.58" cy="444.97" r="0.86" fill="#f4e4c2" opacity="0.19"/><circle cx="506.69" cy="241.16" r="1.24" fill="#f4e4c2" opacity="0.24"/><circle cx="645.36" cy="560.41" r="2.69" fill="#f4e4c2" opacity="0.12"/><circle cx="755.44" cy="283.6" r="1.3" fill="#f4e4c2" opacity="0.26"/><circle cx="82.93" cy="124.18" r="2.06" fill="#f4e4c2" opacity="0.27"/><circle cx="517.48" cy="624.65" r="1.56" fill="#f4e4c2" opacity="0.15"/><circle cx="422.32" cy="195.82" r="0.74" fill="#f4e4c2" opacity="0.26"/><circle cx="126.36" cy="550.19" r="0.68" fill="#f4e4c2" opacity="0.28"/><circle cx="811.36" cy="49.18" r="1.98" fill="#f4e4c2" opacity="0.2"/><circle cx="351.86" cy="203.05" r="1.72" fill="#f4e4c2" opacity="0.11"/><circle cx="690.83" cy="105.78" r="1.06" fill="#f4e4c2" opacity="0.18"/><circle cx="158.73" cy="331.23" r="1.96" fill="#f4e4c2" opacity="0.23"/><circle cx="168.87" cy="185.36" r="0.6" fill="#f4e4c2" opacity="0.23"/><circle cx="146.79" cy="53.3" r="1.23" fill="#f4e4c2" opacity="0.18"/><circle cx="676.65" cy="498.6" r="2.43" fill="#f4e4c2" opacity="0.22"/><circle cx="872.18" cy="65.92" r="1.42" fill="#f4e4c2" opacity="0.11"/><circle cx="505.28" cy="657" r="1.15" fill="#f4e4c2" opacity="0.13"/><rect width="900" height="675" filter="url(#grg127)" opacity="0.07"/></g></svg>
